<?xml version="1.0" standalone="no"?><!DOCTYPE svg PUBLIC "-//W3C//DTD SVG 1.1//EN" "http://www.w3.org/Graphics/SVG/1.1/DTD/svg11.dtd"><svg width="100%" height="100%" viewBox="0 0 535 122" version="1.1" xmlns="http://www.w3.org/2000/svg" xmlns:xlink="http://www.w3.org/1999/xlink" xml:space="preserve" style="fill-rule:evenodd;clip-rule:evenodd;stroke-linejoin:round;stroke-miterlimit:1.41421;"><g id="Layer1"><g><text x="100.484px" y="85.5px" style="font-family:Modern No. 20;font-size:125px;fill:#fff;">R</text><text x="193.484px" y="85.5px" style="font-family:Modern No. 20;font-size:125px;fill:#fff;">A</text><text x="287.524px" y="85.64px" style="font-family:Modern No. 20;font-size:125px;fill:#fff;">L</text><text x="376.524px" y="85.64px" style="font-family:Modern No. 20;font-size:125px;fill:#fff;">L</text><path d="M449.356,5.015l45.126,0l0,1.483c0,0 -5.308,-0.064 -7.952,0c-9.662,0.235 -8.282,3.703 -7.782,5.021c3.555,9.377 19.573,53.915 19.573,53.915c0,0 15.647,-42.671 16.045,-43.925c0.3,-0.945 1.736,-6.277 1.097,-8.789c-0.801,-3.141 -4.321,-6.028 -9.801,-6.222c-1.101,-0.039 -3.305,0 -3.305,0l0,-1.483l31.159,0l0,1.483c0,0 -1.414,-0.062 -2.142,0c-4.143,0.352 -6.575,2.048 -8.039,3.277c-3.613,3.031 -5.975,8.113 -7.872,13.311c-6.042,16.552 -25.622,72.186 -31.074,86.172c-1.92,4.926 -5.358,7.89 -8.847,9.084c-12.065,4.13 -19.258,-2.156 -20.804,-5.253c-2.101,-4.209 -1.296,-8.323 0.994,-10.973c5.872,-6.796 13.768,-3.583 16.503,0.595c2.781,4.247 1.183,9.171 0.528,10.378c-0.715,1.315 -1.584,1.679 -1.405,1.767c1.483,0.73 3.652,0.532 6.088,-0.38c2.519,-0.943 4.683,-3.655 6.005,-7.531c0.606,-1.777 7.37,-20.061 7.247,-20.418c-0.716,-2.077 -26.319,-73.097 -28.311,-76.752c-1.205,-2.211 -2.791,-3.222 -6.655,-3.277l-6.376,0l0,-1.483Z" style="fill:#fff;"/><g><path d="M45.484,89.327l-0.285,0l-0.284,-0.003l-0.283,-0.005l-0.283,-0.006l-0.283,-0.008l-0.282,-0.01l-0.282,-0.011l-0.281,-0.014l-0.281,-0.015l-0.28,-0.017l-0.28,-0.019l-0.28,-0.02l-0.279,-0.022l-0.278,-0.024l-0.278,-0.026l-0.277,-0.027l-0.277,-0.029l-0.277,-0.031l-0.276,-0.032l-0.275,-0.034l-0.275,-0.036l-0.274,-0.038l-0.274,-0.039l-0.273,-0.041l-0.273,-0.042l-0.272,-0.045l-0.272,-0.046l-0.271,-0.047l-0.27,-0.049l-0.27,-0.051l-0.269,-0.053l-0.269,-0.054l-0.268,-0.056l-0.268,-0.057l-0.267,-0.059l-0.266,-0.061l-0.266,-0.062l-0.265,-0.064l-0.264,-0.066l-0.264,-0.067l-0.263,-0.068l-0.263,-0.071l-0.262,-0.071l-0.261,-0.074l-0.261,-0.075l-0.26,-0.076l-0.259,-0.078l-0.259,-0.08l-0.257,-0.081l-0.258,-0.083l-0.256,-0.084l-0.256,-0.086l-0.255,-0.087l-0.255,-0.089l-0.253,-0.09l-0.254,-0.092l-0.252,-0.094l-0.251,-0.094l-0.251,-0.097l-0.25,-0.098l-0.25,-0.099l-0.248,-0.101l-0.248,-0.102l-0.247,-0.104l-0.247,-0.105l-0.245,-0.106l-0.245,-0.108l-0.244,-0.11l-0.243,-0.111l-0.243,-0.112l-0.241,-0.114l-0.241,-0.115l-0.24,-0.117l-0.239,-0.118l-0.239,-0.119l-0.237,-0.121l-0.237,-0.122l-0.236,-0.124l-0.235,-0.125l-0.234,-0.126l-0.234,-0.128l-0.232,-0.129l-0.232,-0.131l-0.23,-0.132l-0.23,-0.133l-0.229,-0.134l-0.228,-0.136l-0.228,-0.137l-0.226,-0.139l-0.226,-0.14l-0.224,-0.141l-0.224,-0.142l-0.222,-0.144l-0.222,-0.145l-0.221,-0.147l-0.22,-0.147l-0.219,-0.149l-0.218,-0.151l-0.217,-0.151l-0.216,-0.153l-0.216,-0.154l-0.214,-0.155l-0.213,-0.157l-0.212,-0.158l-0.212,-0.159l-0.21,-0.16l-0.209,-0.161l-0.208,-0.163l-0.208,-0.164l-0.206,-0.165l-0.205,-0.167l-0.205,-0.167l-0.203,-0.169l-0.202,-0.17l-0.201,-0.171l-0.2,-0.172l-0.2,-0.174l-0.198,-0.175l-0.197,-0.176l-0.196,-0.177l-0.194,-0.178l-0.194,-0.179l-0.193,-0.181l-0.191,-0.181l-0.191,-0.183l-0.189,-0.184l-0.189,-0.185l-0.187,-0.186l-0.186,-0.187l-0.185,-0.188l-0.184,-0.19l-0.183,-0.19l-0.181,-0.192l-0.181,-0.193l-0.179,-0.193l-0.178,-0.195l-0.177,-0.196l-0.176,-0.197l-0.175,-0.198l-0.173,-0.199l-0.173,-0.201l-0.171,-0.201l-0.17,-0.202l-0.169,-0.203l-0.167,-0.204l-0.167,-0.206l-0.165,-0.206l-0.164,-0.207l-0.162,-0.209l-0.162,-0.209l-0.16,-0.21l-0.159,-0.212l-0.158,-0.212l-0.157,-0.213l-0.155,-0.214l-0.154,-0.216l-0.153,-0.216l-0.151,-0.217l-0.151,-0.218l-0.149,-0.219l-0.147,-0.22l-0.147,-0.221l-0.145,-0.221l-0.143,-0.223l-0.143,-0.224l-0.141,-0.224l-0.14,-0.226l-0.139,-0.226l-0.137,-0.227l-0.136,-0.229l-0.134,-0.229l-0.133,-0.229l-0.132,-0.231l-0.131,-0.232l-0.129,-0.232l-0.128,-0.234l-0.126,-0.234l-0.125,-0.235l-0.124,-0.236l-0.122,-0.237l-0.121,-0.237l-0.119,-0.239l-0.118,-0.239l-0.117,-0.24l-0.115,-0.241l-0.114,-0.241l-0.112,-0.243l-0.111,-0.243l-0.11,-0.244l-0.108,-0.245l-0.106,-0.245l-0.105,-0.247l-0.104,-0.247l-0.102,-0.248l-0.101,-0.248l-0.099,-0.25l-0.098,-0.25l-0.096,-0.25l-0.095,-0.252l-0.094,-0.252l-0.091,-0.253l-0.091,-0.254l-0.089,-0.255l-0.087,-0.255l-0.086,-0.256l-0.084,-0.256l-0.083,-0.257l-0.081,-0.258l-0.079,-0.259l-0.079,-0.259l-0.076,-0.26l-0.075,-0.261l-0.073,-0.261l-0.072,-0.262l-0.07,-0.262l-0.069,-0.264l-0.067,-0.263l-0.066,-0.265l-0.064,-0.265l-0.062,-0.266l-0.06,-0.266l-0.06,-0.267l-0.057,-0.268l-0.056,-0.268l-0.054,-0.268l-0.052,-0.27l-0.051,-0.27l-0.05,-0.27l-0.047,-0.271l-0.046,-0.272l-0.044,-0.272l-0.043,-0.272l-0.041,-0.274l-0.039,-0.274l-0.038,-0.274l-0.036,-0.275l-0.034,-0.275l-0.032,-0.276l-0.031,-0.276l-0.029,-0.277l-0.027,-0.278l-0.026,-0.278l-0.024,-0.278l-0.022,-0.279l-0.02,-0.28l-0.019,-0.28l-0.017,-0.28l-0.015,-0.281l-0.013,-0.281l-0.012,-0.282l-0.01,-0.282l-0.008,-0.283l-0.006,-0.283l-0.005,-0.283l-0.002,-0.284l-0.001,-0.285l0.001,-0.284l0.002,-0.284l0.005,-0.283l0.006,-0.283l0.008,-0.283l0.01,-0.282l0.012,-0.282l0.013,-0.281l0.015,-0.281l0.017,-0.28l0.019,-0.28l0.02,-0.28l0.022,-0.279l0.024,-0.278l0.026,-0.278l0.027,-0.278l0.029,-0.277l0.031,-0.276l0.032,-0.276l0.034,-0.275l0.036,-0.275l0.038,-0.274l0.039,-0.274l0.041,-0.274l0.043,-0.272l0.044,-0.272l0.046,-0.272l0.047,-0.271l0.05,-0.27l0.051,-0.27l0.052,-0.27l0.054,-0.268l0.056,-0.268l0.057,-0.268l0.06,-0.267l0.06,-0.266l0.062,-0.266l0.064,-0.265l0.066,-0.265l0.067,-0.263l0.069,-0.264l0.07,-0.262l0.072,-0.262l0.073,-0.261l0.075,-0.261l0.076,-0.26l0.079,-0.259l0.079,-0.259l0.081,-0.258l0.083,-0.257l0.084,-0.256l0.086,-0.256l0.087,-0.255l0.089,-0.255l0.091,-0.254l0.091,-0.253l0.094,-0.252l0.095,-0.252l0.096,-0.25l0.098,-0.25l0.099,-0.25l0.101,-0.248l0.102,-0.248l0.104,-0.247l0.105,-0.247l0.106,-0.245l0.108,-0.245l0.11,-0.244l0.111,-0.243l0.112,-0.243l0.114,-0.241l0.115,-0.241l0.117,-0.24l0.118,-0.239l0.119,-0.239l0.121,-0.237l0.122,-0.237l0.124,-0.236l0.125,-0.235l0.126,-0.234l0.128,-0.234l0.129,-0.232l0.131,-0.232l0.132,-0.231l0.133,-0.229l0.134,-0.229l0.136,-0.229l0.137,-0.227l0.139,-0.226l0.14,-0.226l0.141,-0.224l0.143,-0.224l0.143,-0.223l0.145,-0.221l0.147,-0.221l0.147,-0.22l0.149,-0.219l0.151,-0.218l0.151,-0.217l0.153,-0.216l0.154,-0.216l0.155,-0.214l0.157,-0.213l0.158,-0.212l0.159,-0.212l0.16,-0.21l0.162,-0.209l0.162,-0.209l0.164,-0.207l0.165,-0.206l0.167,-0.206l0.167,-0.204l0.169,-0.203l0.17,-0.202l0.171,-0.201l0.173,-0.201l0.173,-0.199l0.175,-0.198l0.176,-0.197l0.177,-0.196l0.178,-0.195l0.179,-0.193l0.181,-0.193l0.181,-0.192l0.183,-0.19l0.184,-0.19l0.185,-0.188l0.186,-0.187l0.187,-0.186l0.189,-0.185l0.189,-0.184l0.191,-0.183l0.191,-0.181l0.193,-0.181l0.194,-0.179l0.194,-0.178l0.196,-0.177l0.197,-0.176l0.198,-0.175l0.2,-0.174l0.2,-0.172l0.201,-0.171l0.202,-0.17l0.203,-0.169l0.205,-0.167l0.205,-0.167l0.206,-0.165l0.208,-0.164l0.208,-0.163l0.209,-0.161l0.21,-0.16l0.212,-0.159l0.212,-0.158l0.213,-0.157l0.214,-0.155l0.216,-0.154l0.216,-0.153l0.217,-0.151l0.218,-0.151l0.219,-0.149l0.22,-0.147l0.221,-0.147l0.222,-0.145l0.222,-0.144l0.224,-0.142l0.224,-0.141l0.226,-0.14l0.226,-0.139l0.228,-0.137l0.228,-0.136l0.229,-0.134l0.23,-0.133l0.23,-0.132l0.232,-0.131l0.232,-0.129l0.234,-0.128l0.234,-0.126l0.235,-0.125l0.236,-0.124l0.237,-0.122l0.237,-0.121l0.239,-0.119l0.239,-0.118l0.24,-0.117l0.241,-0.115l0.241,-0.114l0.243,-0.112l0.243,-0.111l0.244,-0.11l0.245,-0.108l0.245,-0.106l0.247,-0.105l0.247,-0.104l0.248,-0.102l0.248,-0.101l0.25,-0.099l0.25,-0.098l0.251,-0.097l0.251,-0.094l0.252,-0.094l0.254,-0.092l0.253,-0.09l0.255,-0.089l0.255,-0.087l0.256,-0.086l0.256,-0.084l0.258,-0.083l0.257,-0.081l0.259,-0.08l0.259,-0.078l0.26,-0.076l0.261,-0.075l0.261,-0.074l0.262,-0.071l0.263,-0.071l0.263,-0.068l0.264,-0.067l0.264,-0.066l0.265,-0.064l0.266,-0.062l0.266,-0.061l0.267,-0.059l0.268,-0.057l0.268,-0.056l0.269,-0.054l0.269,-0.053l0.27,-0.051l0.27,-0.049l0.271,-0.047l0.272,-0.046l0.272,-0.045l0.273,-0.042l0.273,-0.041l0.274,-0.039l0.274,-0.038l0.275,-0.036l0.275,-0.034l0.276,-0.032l0.277,-0.031l0.277,-0.029l0.277,-0.027l0.278,-0.026l0.278,-0.024l0.279,-0.022l0.28,-0.02l0.28,-0.019l0.28,-0.017l0.281,-0.015l0.281,-0.014l0.282,-0.011l0.282,-0.01l0.283,-0.008l0.283,-0.006l0.283,-0.005l0.284,-0.003l0.285,-0.001l0.284,0.001l0.284,0.003l0.283,0.005l0.284,0.006l0.282,0.008l0.282,0.01l0.282,0.011l0.281,0.014l0.281,0.015l0.281,0.017l0.28,0.019l0.279,0.02l0.279,0.022l0.278,0.024l0.278,0.026l0.278,0.027l0.277,0.029l0.276,0.031l0.276,0.032l0.275,0.034l0.275,0.036l0.275,0.038l0.273,0.039l0.274,0.041l0.272,0.042l0.273,0.045l0.271,0.046l0.271,0.047l0.271,0.049l0.269,0.051l0.27,0.053l0.269,0.054l0.268,0.056l0.267,0.057l0.267,0.059l0.266,0.061l0.266,0.062l0.265,0.064l0.265,0.066l0.264,0.067l0.263,0.068l0.262,0.071l0.262,0.071l0.261,0.074l0.261,0.075l0.26,0.076l0.259,0.078l0.259,0.08l0.258,0.081l0.257,0.083l0.257,0.084l0.255,0.086l0.256,0.087l0.254,0.089l0.254,0.09l0.253,0.092l0.252,0.094l0.252,0.094l0.251,0.097l0.25,0.098l0.249,0.099l0.249,0.101l0.247,0.102l0.248,0.104l0.246,0.105l0.245,0.106l0.245,0.108l0.244,0.11l0.243,0.111l0.243,0.112l0.242,0.114l0.24,0.115l0.24,0.117l0.24,0.118l0.238,0.119l0.238,0.121l0.236,0.122l0.236,0.124l0.235,0.125l0.234,0.126l0.234,0.128l0.232,0.129l0.232,0.131l0.231,0.132l0.23,0.133l0.229,0.134l0.228,0.136l0.227,0.137l0.226,0.139l0.226,0.14l0.224,0.141l0.224,0.142l0.223,0.144l0.222,0.145l0.22,0.147l0.22,0.147l0.219,0.149l0.218,0.151l0.217,0.151l0.217,0.153l0.215,0.154l0.214,0.155l0.213,0.157l0.213,0.158l0.211,0.159l0.21,0.16l0.209,0.161l0.209,0.163l0.207,0.164l0.206,0.165l0.206,0.167l0.204,0.167l0.203,0.169l0.202,0.17l0.202,0.171l0.2,0.172l0.199,0.174l0.198,0.175l0.197,0.176l0.196,0.177l0.195,0.178l0.193,0.179l0.193,0.181l0.192,0.181l0.19,0.183l0.19,0.184l0.188,0.185l0.187,0.186l0.186,0.187l0.185,0.188l0.184,0.19l0.183,0.19l0.182,0.192l0.18,0.193l0.179,0.193l0.179,0.195l0.177,0.196l0.175,0.197l0.175,0.198l0.174,0.199l0.172,0.201l0.171,0.201l0.17,0.202l0.169,0.203l0.168,0.204l0.166,0.206l0.165,0.206l0.164,0.207l0.163,0.209l0.161,0.209l0.161,0.21l0.159,0.212l0.157,0.212l0.157,0.213l0.155,0.214l0.154,0.216l0.153,0.216l0.152,0.217l0.15,0.218l0.149,0.219l0.148,0.22l0.146,0.221l0.145,0.221l0.144,0.223l0.142,0.224l0.141,0.224l0.14,0.226l0.139,0.226l0.137,0.227l0.136,0.229l0.134,0.229l0.134,0.229l0.131,0.231l0.131,0.232l0.129,0.232l0.128,0.234l0.126,0.234l0.125,0.235l0.124,0.236l0.122,0.237l0.121,0.237l0.119,0.239l0.118,0.239l0.117,0.24l0.115,0.241l0.114,0.241l0.112,0.243l0.111,0.243l0.11,0.244l0.108,0.245l0.106,0.245l0.106,0.247l0.103,0.247l0.103,0.248l0.1,0.248l0.1,0.25l0.097,0.25l0.097,0.25l0.095,0.252l0.093,0.252l0.092,0.253l0.09,0.254l0.089,0.255l0.087,0.255l0.086,0.256l0.084,0.256l0.083,0.257l0.081,0.258l0.08,0.259l0.078,0.259l0.076,0.26l0.075,0.261l0.074,0.261l0.072,0.262l0.07,0.262l0.068,0.264l0.067,0.263l0.066,0.265l0.064,0.265l0.062,0.266l0.061,0.266l0.059,0.267l0.057,0.268l0.056,0.268l0.054,0.268l0.053,0.27l0.051,0.27l0.049,0.27l0.047,0.271l0.046,0.272l0.045,0.272l0.042,0.272l0.041,0.274l0.039,0.274l0.038,0.274l0.036,0.275l0.034,0.275l0.032,0.276l0.031,0.276l0.029,0.277l0.028,0.278l0.025,0.278l0.024,0.278l0.022,0.279l0.021,0.28l0.018,0.28l0.017,0.28l0.015,0.281l0.014,0.281l0.011,0.282l0.01,0.282l0.008,0.283l0.007,0.283l0.004,0.283l0.003,0.284l0.001,0.284l-0.001,0.285l-0.003,0.284l-0.004,0.283l-0.007,0.283l-0.008,0.283l-0.01,0.282l-0.011,0.282l-0.014,0.281l-0.015,0.281l-0.017,0.28l-0.018,0.28l-0.021,0.28l-0.022,0.279l-0.024,0.278l-0.025,0.278l-0.028,0.278l-0.029,0.277l-0.031,0.276l-0.032,0.276l-0.034,0.275l-0.036,0.275l-0.038,0.274l-0.039,0.274l-0.041,0.274l-0.042,0.272l-0.045,0.272l-0.046,0.272l-0.047,0.271l-0.049,0.27l-0.051,0.27l-0.053,0.27l-0.054,0.268l-0.056,0.268l-0.057,0.268l-0.059,0.267l-0.061,0.266l-0.062,0.266l-0.064,0.265l-0.066,0.265l-0.067,0.263l-0.068,0.264l-0.07,0.262l-0.072,0.262l-0.074,0.261l-0.075,0.261l-0.076,0.26l-0.078,0.259l-0.08,0.259l-0.081,0.258l-0.083,0.257l-0.084,0.256l-0.086,0.256l-0.087,0.255l-0.089,0.255l-0.09,0.254l-0.092,0.253l-0.093,0.252l-0.095,0.252l-0.097,0.25l-0.097,0.25l-0.1,0.25l-0.1,0.248l-0.103,0.248l-0.103,0.247l-0.106,0.247l-0.106,0.245l-0.108,0.245l-0.11,0.244l-0.111,0.243l-0.112,0.243l-0.114,0.241l-0.115,0.241l-0.117,0.24l-0.118,0.239l-0.119,0.239l-0.121,0.237l-0.122,0.237l-0.124,0.236l-0.125,0.235l-0.126,0.234l-0.128,0.234l-0.129,0.232l-0.131,0.232l-0.131,0.231l-0.134,0.229l-0.134,0.229l-0.136,0.229l-0.137,0.227l-0.139,0.226l-0.14,0.226l-0.141,0.224l-0.142,0.224l-0.144,0.223l-0.145,0.221l-0.146,0.221l-0.148,0.22l-0.149,0.219l-0.15,0.218l-0.152,0.217l-0.153,0.216l-0.154,0.216l-0.155,0.214l-0.157,0.213l-0.157,0.212l-0.159,0.212l-0.161,0.21l-0.161,0.209l-0.163,0.209l-0.164,0.207l-0.165,0.206l-0.166,0.206l-0.168,0.204l-0.169,0.203l-0.17,0.202l-0.171,0.201l-0.172,0.201l-0.174,0.199l-0.175,0.198l-0.175,0.197l-0.177,0.196l-0.179,0.195l-0.179,0.193l-0.18,0.193l-0.182,0.192l-0.183,0.19l-0.184,0.19l-0.185,0.188l-0.186,0.187l-0.187,0.186l-0.188,0.185l-0.19,0.184l-0.19,0.183l-0.192,0.181l-0.193,0.181l-0.193,0.179l-0.195,0.178l-0.196,0.177l-0.197,0.176l-0.198,0.175l-0.199,0.174l-0.2,0.172l-0.202,0.171l-0.202,0.17l-0.203,0.169l-0.204,0.167l-0.206,0.167l-0.206,0.165l-0.207,0.164l-0.209,0.163l-0.209,0.161l-0.21,0.16l-0.211,0.159l-0.213,0.158l-0.213,0.157l-0.214,0.155l-0.215,0.154l-0.217,0.153l-0.217,0.151l-0.218,0.151l-0.219,0.149l-0.22,0.147l-0.22,0.147l-0.222,0.145l-0.223,0.144l-0.224,0.142l-0.224,0.141l-0.226,0.14l-0.226,0.139l-0.227,0.137l-0.228,0.136l-0.229,0.134l-0.23,0.133l-0.231,0.132l-0.232,0.131l-0.232,0.129l-0.234,0.128l-0.234,0.126l-0.235,0.125l-0.236,0.124l-0.236,0.122l-0.238,0.121l-0.238,0.119l-0.24,0.118l-0.24,0.117l-0.24,0.115l-0.242,0.114l-0.243,0.112l-0.243,0.111l-0.244,0.11l-0.245,0.108l-0.245,0.106l-0.246,0.105l-0.248,0.104l-0.247,0.102l-0.249,0.101l-0.249,0.099l-0.25,0.098l-0.251,0.097l-0.252,0.094l-0.252,0.094l-0.253,0.092l-0.254,0.09l-0.254,0.089l-0.256,0.087l-0.255,0.086l-0.257,0.084l-0.257,0.083l-0.258,0.081l-0.259,0.08l-0.259,0.078l-0.26,0.076l-0.261,0.075l-0.261,0.074l-0.262,0.071l-0.262,0.071l-0.263,0.068l-0.264,0.067l-0.265,0.066l-0.265,0.064l-0.266,0.062l-0.266,0.061l-0.267,0.059l-0.267,0.057l-0.268,0.056l-0.269,0.054l-0.27,0.053l-0.269,0.051l-0.271,0.049l-0.271,0.047l-0.271,0.046l-0.273,0.045l-0.272,0.042l-0.274,0.041l-0.273,0.039l-0.275,0.038l-0.275,0.036l-0.275,0.034l-0.276,0.032l-0.276,0.031l-0.277,0.029l-0.278,0.027l-0.278,0.026l-0.278,0.024l-0.279,0.022l-0.279,0.02l-0.28,0.019l-0.281,0.017l-0.281,0.015l-0.281,0.014l-0.282,0.011l-0.282,0.01l-0.282,0.008l-0.284,0.006l-0.283,0.005l-0.284,0.003l-0.284,0ZM45.484,84.827l0.255,0l0.256,-0.003l0.255,-0.004l0.254,-0.005l0.255,-0.008l0.253,-0.009l0.253,-0.01l0.253,-0.012l0.253,-0.014l0.252,-0.015l0.251,-0.017l0.251,-0.018l0.251,-0.02l0.25,-0.021l0.249,-0.023l0.249,-0.025l0.249,-0.026l0.248,-0.027l0.248,-0.03l0.247,-0.03l0.247,-0.032l0.246,-0.034l0.246,-0.035l0.245,-0.037l0.245,-0.038l0.244,-0.04l0.244,-0.041l0.243,-0.043l0.243,-0.044l0.242,-0.046l0.241,-0.047l0.241,-0.049l0.241,-0.05l0.24,-0.051l0.239,-0.053l0.239,-0.055l0.239,-0.055l0.237,-0.058l0.238,-0.058l0.236,-0.061l0.236,-0.061l0.236,-0.063l0.235,-0.065l0.234,-0.065l0.234,-0.068l0.233,-0.068l0.232,-0.07l0.232,-0.072l0.232,-0.072l0.23,-0.075l0.23,-0.075l0.23,-0.077l0.229,-0.078l0.228,-0.08l0.228,-0.081l0.226,-0.082l0.227,-0.084l0.225,-0.085l0.225,-0.087l0.225,-0.087l0.223,-0.089l0.223,-0.091l0.223,-0.092l0.222,-0.093l0.221,-0.094l0.22,-0.096l0.219,-0.097l0.219,-0.098l0.219,-0.099l0.217,-0.101l0.217,-0.102l0.216,-0.104l0.215,-0.104l0.215,-0.106l0.214,-0.107l0.213,-0.109l0.213,-0.11l0.211,-0.11l0.211,-0.113l0.21,-0.113l0.21,-0.115l0.209,-0.116l0.208,-0.117l0.207,-0.118l0.206,-0.12l0.206,-0.12l0.205,-0.122l0.204,-0.124l0.203,-0.124l0.202,-0.126l0.202,-0.126l0.201,-0.128l0.2,-0.129l0.199,-0.131l0.198,-0.131l0.198,-0.133l0.196,-0.133l0.196,-0.135l0.195,-0.137l0.194,-0.137l0.193,-0.138l0.193,-0.14l0.191,-0.14l0.191,-0.142l0.19,-0.143l0.189,-0.144l0.188,-0.145l0.187,-0.146l0.186,-0.147l0.185,-0.149l0.185,-0.149l0.183,-0.151l0.183,-0.151l0.182,-0.153l0.18,-0.154l0.18,-0.155l0.179,-0.156l0.178,-0.157l0.177,-0.158l0.176,-0.159l0.175,-0.16l0.174,-0.161l0.173,-0.162l0.172,-0.163l0.172,-0.164l0.17,-0.165l0.169,-0.167l0.168,-0.167l0.167,-0.168l0.167,-0.169l0.165,-0.17l0.164,-0.172l0.163,-0.172l0.162,-0.173l0.162,-0.174l0.16,-0.175l0.159,-0.176l0.158,-0.177l0.157,-0.178l0.156,-0.179l0.154,-0.18l0.154,-0.181l0.153,-0.181l0.151,-0.183l0.151,-0.183l0.149,-0.185l0.149,-0.185l0.147,-0.186l0.146,-0.187l0.145,-0.188l0.144,-0.189l0.143,-0.19l0.142,-0.191l0.141,-0.191l0.139,-0.193l0.138,-0.193l0.138,-0.194l0.136,-0.195l0.135,-0.196l0.133,-0.197l0.133,-0.197l0.132,-0.198l0.13,-0.2l0.129,-0.2l0.128,-0.2l0.127,-0.202l0.125,-0.202l0.125,-0.204l0.123,-0.204l0.122,-0.204l0.12,-0.206l0.12,-0.206l0.118,-0.208l0.117,-0.207l0.116,-0.209l0.115,-0.21l0.113,-0.21l0.113,-0.211l0.111,-0.212l0.109,-0.212l0.109,-0.213l0.107,-0.214l0.106,-0.215l0.105,-0.215l0.103,-0.216l0.102,-0.217l0.101,-0.218l0.099,-0.218l0.099,-0.219l0.097,-0.219l0.095,-0.221l0.095,-0.221l0.093,-0.221l0.091,-0.223l0.091,-0.223l0.089,-0.223l0.087,-0.225l0.087,-0.225l0.085,-0.225l0.084,-0.227l0.082,-0.227l0.081,-0.227l0.08,-0.228l0.078,-0.229l0.077,-0.23l0.075,-0.23l0.075,-0.231l0.072,-0.231l0.072,-0.232l0.07,-0.232l0.069,-0.233l0.067,-0.234l0.066,-0.235l0.064,-0.234l0.063,-0.236l0.062,-0.236l0.06,-0.237l0.058,-0.237l0.058,-0.238l0.056,-0.238l0.054,-0.239l0.053,-0.239l0.052,-0.24l0.05,-0.241l0.048,-0.241l0.047,-0.241l0.046,-0.243l0.044,-0.242l0.043,-0.243l0.041,-0.244l0.04,-0.244l0.038,-0.245l0.037,-0.245l0.035,-0.246l0.034,-0.246l0.032,-0.247l0.031,-0.247l0.029,-0.248l0.027,-0.248l0.026,-0.249l0.025,-0.249l0.023,-0.249l0.021,-0.25l0.02,-0.251l0.019,-0.251l0.016,-0.252l0.016,-0.251l0.013,-0.253l0.012,-0.253l0.011,-0.253l0.008,-0.254l0.008,-0.254l0.005,-0.254l0.004,-0.255l0.003,-0.256l0.001,-0.256l-0.001,-0.255l-0.003,-0.256l-0.004,-0.255l-0.005,-0.254l-0.008,-0.254l-0.008,-0.254l-0.011,-0.253l-0.012,-0.253l-0.013,-0.253l-0.016,-0.251l-0.016,-0.252l-0.019,-0.251l-0.02,-0.251l-0.021,-0.25l-0.023,-0.249l-0.025,-0.249l-0.026,-0.249l-0.027,-0.248l-0.029,-0.248l-0.031,-0.247l-0.032,-0.247l-0.034,-0.246l-0.035,-0.246l-0.037,-0.245l-0.038,-0.245l-0.04,-0.244l-0.041,-0.244l-0.043,-0.243l-0.044,-0.242l-0.046,-0.243l-0.047,-0.241l-0.048,-0.241l-0.05,-0.241l-0.052,-0.24l-0.053,-0.239l-0.054,-0.239l-0.056,-0.238l-0.058,-0.238l-0.058,-0.237l-0.06,-0.237l-0.062,-0.236l-0.063,-0.236l-0.064,-0.234l-0.066,-0.235l-0.067,-0.234l-0.069,-0.233l-0.07,-0.232l-0.072,-0.232l-0.072,-0.231l-0.075,-0.231l-0.075,-0.23l-0.077,-0.23l-0.078,-0.229l-0.08,-0.228l-0.081,-0.227l-0.082,-0.227l-0.084,-0.227l-0.085,-0.225l-0.087,-0.225l-0.087,-0.225l-0.089,-0.223l-0.091,-0.223l-0.091,-0.223l-0.093,-0.221l-0.095,-0.221l-0.095,-0.221l-0.097,-0.219l-0.099,-0.219l-0.099,-0.218l-0.101,-0.218l-0.102,-0.217l-0.103,-0.216l-0.105,-0.215l-0.106,-0.215l-0.107,-0.214l-0.109,-0.213l-0.109,-0.212l-0.111,-0.212l-0.113,-0.211l-0.113,-0.21l-0.115,-0.21l-0.116,-0.209l-0.117,-0.207l-0.118,-0.208l-0.12,-0.206l-0.12,-0.206l-0.122,-0.204l-0.123,-0.204l-0.125,-0.204l-0.125,-0.202l-0.127,-0.202l-0.128,-0.2l-0.129,-0.2l-0.13,-0.2l-0.132,-0.198l-0.133,-0.197l-0.133,-0.197l-0.135,-0.196l-0.136,-0.195l-0.138,-0.194l-0.138,-0.193l-0.139,-0.193l-0.141,-0.191l-0.142,-0.191l-0.143,-0.19l-0.144,-0.189l-0.145,-0.188l-0.146,-0.187l-0.147,-0.186l-0.149,-0.185l-0.149,-0.185l-0.151,-0.183l-0.151,-0.183l-0.153,-0.181l-0.154,-0.181l-0.155,-0.18l-0.155,-0.179l-0.157,-0.178l-0.158,-0.177l-0.159,-0.176l-0.16,-0.175l-0.162,-0.174l-0.162,-0.173l-0.163,-0.172l-0.164,-0.172l-0.165,-0.17l-0.167,-0.169l-0.167,-0.168l-0.168,-0.167l-0.169,-0.167l-0.17,-0.165l-0.172,-0.164l-0.172,-0.163l-0.173,-0.162l-0.174,-0.161l-0.175,-0.16l-0.176,-0.159l-0.177,-0.158l-0.178,-0.157l-0.179,-0.156l-0.18,-0.155l-0.18,-0.154l-0.182,-0.153l-0.183,-0.151l-0.183,-0.151l-0.185,-0.149l-0.185,-0.149l-0.186,-0.147l-0.187,-0.146l-0.188,-0.145l-0.189,-0.144l-0.19,-0.143l-0.191,-0.142l-0.191,-0.14l-0.193,-0.14l-0.193,-0.138l-0.194,-0.138l-0.195,-0.136l-0.196,-0.135l-0.196,-0.133l-0.198,-0.133l-0.198,-0.131l-0.199,-0.131l-0.2,-0.129l-0.201,-0.128l-0.202,-0.126l-0.202,-0.126l-0.203,-0.124l-0.204,-0.124l-0.205,-0.122l-0.206,-0.12l-0.206,-0.12l-0.207,-0.118l-0.208,-0.117l-0.209,-0.116l-0.21,-0.115l-0.21,-0.113l-0.211,-0.113l-0.211,-0.11l-0.213,-0.11l-0.213,-0.109l-0.214,-0.107l-0.215,-0.106l-0.215,-0.104l-0.216,-0.104l-0.217,-0.102l-0.217,-0.101l-0.219,-0.099l-0.219,-0.098l-0.219,-0.097l-0.22,-0.096l-0.221,-0.094l-0.222,-0.093l-0.222,-0.092l-0.224,-0.091l-0.223,-0.089l-0.225,-0.087l-0.225,-0.087l-0.225,-0.085l-0.227,-0.084l-0.226,-0.082l-0.228,-0.081l-0.228,-0.08l-0.229,-0.078l-0.23,-0.077l-0.23,-0.075l-0.23,-0.075l-0.232,-0.072l-0.232,-0.072l-0.232,-0.07l-0.233,-0.068l-0.234,-0.068l-0.234,-0.065l-0.235,-0.065l-0.236,-0.063l-0.236,-0.061l-0.236,-0.061l-0.238,-0.058l-0.237,-0.058l-0.239,-0.055l-0.239,-0.055l-0.239,-0.053l-0.24,-0.051l-0.241,-0.05l-0.241,-0.049l-0.241,-0.047l-0.242,-0.046l-0.243,-0.044l-0.243,-0.043l-0.244,-0.041l-0.244,-0.04l-0.245,-0.038l-0.245,-0.037l-0.246,-0.035l-0.246,-0.034l-0.247,-0.032l-0.247,-0.03l-0.248,-0.03l-0.248,-0.027l-0.249,-0.026l-0.249,-0.025l-0.249,-0.023l-0.25,-0.021l-0.251,-0.02l-0.251,-0.018l-0.251,-0.017l-0.252,-0.015l-0.253,-0.014l-0.252,-0.012l-0.254,-0.01l-0.253,-0.009l-0.255,-0.008l-0.254,-0.005l-0.255,-0.004l-0.256,-0.003l-0.255,0l-0.256,0l-0.256,0.003l-0.255,0.004l-0.254,0.005l-0.254,0.008l-0.254,0.009l-0.253,0.01l-0.253,0.012l-0.252,0.014l-0.252,0.015l-0.252,0.017l-0.251,0.018l-0.25,0.02l-0.25,0.021l-0.25,0.023l-0.249,0.025l-0.249,0.026l-0.248,0.027l-0.248,0.03l-0.247,0.03l-0.247,0.032l-0.246,0.034l-0.246,0.035l-0.245,0.037l-0.245,0.038l-0.244,0.04l-0.244,0.041l-0.243,0.043l-0.242,0.044l-0.242,0.046l-0.242,0.047l-0.241,0.049l-0.241,0.05l-0.24,0.051l-0.239,0.053l-0.239,0.055l-0.238,0.055l-0.238,0.058l-0.237,0.058l-0.237,0.061l-0.236,0.061l-0.235,0.063l-0.235,0.065l-0.235,0.065l-0.233,0.068l-0.234,0.068l-0.232,0.07l-0.232,0.072l-0.231,0.072l-0.231,0.075l-0.23,0.075l-0.23,0.077l-0.228,0.078l-0.229,0.08l-0.227,0.081l-0.227,0.083l-0.226,0.083l-0.226,0.085l-0.225,0.087l-0.224,0.087l-0.224,0.089l-0.223,0.091l-0.223,0.092l-0.221,0.093l-0.221,0.094l-0.221,0.096l-0.219,0.097l-0.219,0.098l-0.218,0.099l-0.218,0.101l-0.217,0.102l-0.216,0.104l-0.215,0.104l-0.215,0.106l-0.214,0.107l-0.213,0.109l-0.212,0.11l-0.212,0.11l-0.211,0.113l-0.21,0.113l-0.21,0.115l-0.208,0.116l-0.208,0.117l-0.207,0.118l-0.207,0.12l-0.205,0.12l-0.205,0.122l-0.204,0.124l-0.203,0.124l-0.203,0.126l-0.201,0.126l-0.201,0.128l-0.2,0.129l-0.199,0.131l-0.199,0.131l-0.197,0.133l-0.197,0.133l-0.196,0.135l-0.195,0.136l-0.194,0.138l-0.193,0.138l-0.193,0.14l-0.191,0.14l-0.191,0.142l-0.19,0.143l-0.188,0.144l-0.188,0.145l-0.188,0.146l-0.186,0.147l-0.185,0.149l-0.185,0.149l-0.183,0.151l-0.183,0.151l-0.181,0.153l-0.181,0.154l-0.18,0.155l-0.179,0.156l-0.178,0.157l-0.177,0.158l-0.176,0.159l-0.175,0.16l-0.174,0.161l-0.173,0.162l-0.172,0.163l-0.171,0.164l-0.171,0.165l-0.169,0.167l-0.168,0.167l-0.167,0.168l-0.166,0.169l-0.166,0.171l-0.164,0.171l-0.163,0.172l-0.162,0.173l-0.161,0.174l-0.16,0.175l-0.159,0.176l-0.158,0.177l-0.157,0.178l-0.156,0.179l-0.155,0.18l-0.154,0.181l-0.153,0.181l-0.151,0.183l-0.151,0.183l-0.149,0.185l-0.149,0.185l-0.147,0.186l-0.146,0.187l-0.145,0.188l-0.144,0.189l-0.143,0.19l-0.142,0.191l-0.14,0.191l-0.14,0.193l-0.138,0.193l-0.137,0.194l-0.136,0.195l-0.135,0.196l-0.134,0.197l-0.133,0.197l-0.131,0.198l-0.13,0.2l-0.13,0.2l-0.128,0.2l-0.126,0.202l-0.126,0.202l-0.124,0.204l-0.123,0.204l-0.122,0.204l-0.121,0.206l-0.12,0.206l-0.118,0.208l-0.117,0.207l-0.116,0.209l-0.115,0.21l-0.113,0.21l-0.112,0.211l-0.111,0.212l-0.11,0.212l-0.108,0.213l-0.108,0.214l-0.106,0.215l-0.104,0.215l-0.104,0.216l-0.102,0.217l-0.101,0.218l-0.099,0.218l-0.098,0.219l-0.097,0.219l-0.096,0.221l-0.094,0.221l-0.093,0.221l-0.092,0.223l-0.09,0.223l-0.089,0.223l-0.088,0.225l-0.087,0.225l-0.085,0.225l-0.083,0.227l-0.083,0.227l-0.081,0.227l-0.079,0.228l-0.079,0.229l-0.077,0.23l-0.075,0.23l-0.074,0.231l-0.073,0.231l-0.072,0.232l-0.07,0.232l-0.068,0.233l-0.067,0.234l-0.066,0.235l-0.065,0.234l-0.063,0.236l-0.061,0.236l-0.06,0.237l-0.059,0.237l-0.057,0.238l-0.056,0.238l-0.055,0.239l-0.053,0.239l-0.051,0.24l-0.05,0.241l-0.049,0.241l-0.047,0.241l-0.046,0.243l-0.044,0.242l-0.043,0.243l-0.041,0.244l-0.039,0.244l-0.039,0.245l-0.036,0.245l-0.036,0.246l-0.033,0.246l-0.033,0.247l-0.03,0.247l-0.029,0.248l-0.028,0.248l-0.026,0.249l-0.025,0.249l-0.023,0.249l-0.021,0.251l-0.02,0.25l-0.018,0.251l-0.017,0.252l-0.015,0.251l-0.014,0.253l-0.012,0.253l-0.01,0.253l-0.009,0.254l-0.007,0.254l-0.006,0.254l-0.004,0.255l-0.003,0.256l0,0.255l0,0.256l0.003,0.256l0.004,0.255l0.006,0.254l0.007,0.254l0.009,0.254l0.01,0.253l0.012,0.253l0.014,0.253l0.015,0.251l0.017,0.252l0.018,0.251l0.02,0.25l0.021,0.251l0.023,0.249l0.025,0.249l0.026,0.249l0.028,0.248l0.029,0.248l0.03,0.247l0.033,0.247l0.033,0.246l0.036,0.246l0.036,0.245l0.039,0.245l0.039,0.244l0.041,0.244l0.043,0.243l0.044,0.242l0.046,0.243l0.047,0.241l0.049,0.241l0.05,0.241l0.051,0.24l0.053,0.239l0.055,0.239l0.056,0.238l0.057,0.238l0.059,0.237l0.06,0.237l0.061,0.236l0.063,0.236l0.065,0.234l0.066,0.235l0.067,0.234l0.068,0.233l0.07,0.232l0.072,0.232l0.073,0.231l0.074,0.231l0.075,0.23l0.077,0.23l0.079,0.229l0.079,0.228l0.081,0.227l0.083,0.227l0.083,0.227l0.085,0.225l0.087,0.225l0.088,0.225l0.089,0.223l0.09,0.223l0.092,0.223l0.093,0.221l0.094,0.221l0.096,0.221l0.097,0.219l0.098,0.219l0.099,0.218l0.101,0.218l0.102,0.217l0.104,0.216l0.104,0.215l0.106,0.215l0.108,0.214l0.108,0.213l0.11,0.212l0.111,0.212l0.112,0.211l0.113,0.21l0.115,0.21l0.116,0.208l0.117,0.208l0.118,0.208l0.12,0.206l0.121,0.206l0.122,0.204l0.123,0.204l0.124,0.204l0.126,0.202l0.126,0.202l0.128,0.2l0.13,0.2l0.13,0.2l0.131,0.198l0.133,0.197l0.134,0.197l0.135,0.196l0.136,0.195l0.137,0.194l0.138,0.193l0.14,0.193l0.14,0.191l0.142,0.191l0.143,0.19l0.144,0.189l0.145,0.188l0.146,0.187l0.147,0.186l0.149,0.185l0.149,0.185l0.151,0.183l0.151,0.183l0.153,0.181l0.154,0.181l0.155,0.18l0.156,0.179l0.157,0.178l0.158,0.177l0.159,0.176l0.16,0.175l0.161,0.174l0.162,0.173l0.163,0.172l0.164,0.171l0.166,0.171l0.166,0.169l0.167,0.168l0.168,0.167l0.169,0.167l0.171,0.165l0.171,0.164l0.172,0.163l0.173,0.162l0.174,0.161l0.175,0.16l0.176,0.16l0.177,0.157l0.178,0.157l0.179,0.156l0.18,0.155l0.181,0.154l0.181,0.153l0.183,0.151l0.183,0.151l0.185,0.149l0.185,0.149l0.186,0.147l0.188,0.146l0.188,0.145l0.188,0.144l0.19,0.143l0.191,0.142l0.191,0.14l0.193,0.14l0.193,0.138l0.194,0.137l0.195,0.137l0.196,0.135l0.197,0.133l0.197,0.133l0.199,0.131l0.199,0.131l0.2,0.129l0.201,0.128l0.201,0.126l0.203,0.126l0.203,0.124l0.204,0.124l0.205,0.122l0.205,0.12l0.207,0.12l0.207,0.118l0.208,0.117l0.208,0.116l0.21,0.115l0.21,0.113l0.211,0.113l0.212,0.11l0.212,0.11l0.213,0.109l0.214,0.107l0.215,0.106l0.215,0.104l0.216,0.104l0.217,0.102l0.218,0.101l0.218,0.099l0.219,0.098l0.219,0.097l0.221,0.096l0.221,0.094l0.221,0.093l0.223,0.092l0.223,0.091l0.223,0.089l0.225,0.087l0.225,0.087l0.225,0.085l0.227,0.084l0.227,0.082l0.227,0.081l0.229,0.08l0.228,0.078l0.23,0.077l0.23,0.075l0.231,0.075l0.231,0.072l0.232,0.072l0.233,0.07l0.233,0.068l0.233,0.068l0.235,0.065l0.235,0.065l0.235,0.063l0.236,0.061l0.237,0.061l0.237,0.058l0.238,0.058l0.238,0.055l0.239,0.055l0.239,0.053l0.24,0.051l0.241,0.05l0.241,0.049l0.242,0.047l0.242,0.046l0.242,0.044l0.244,0.043l0.243,0.041l0.244,0.04l0.245,0.038l0.245,0.037l0.246,0.035l0.246,0.034l0.247,0.032l0.247,0.03l0.248,0.03l0.248,0.027l0.249,0.026l0.249,0.025l0.25,0.023l0.25,0.021l0.25,0.02l0.251,0.018l0.252,0.017l0.252,0.015l0.252,0.014l0.253,0.012l0.253,0.01l0.254,0.009l0.254,0.008l0.254,0.005l0.255,0.004l0.256,0.003l0.256,0Z" style="fill:#fff;"/><g><path d="M47.074,63.134l-18.748,0.042l0,-0.552c0,0 2.463,0.037 3.768,0c3.032,-0.085 3.452,-0.175 3.444,-2.908c-0.009,-3.041 0,-15.164 0,-15.164l-6.175,0c0,0 -4.925,-0.304 -4.977,4.037c-0.038,3.183 0.465,9.995 -1.398,13.144c-1.116,1.886 -4.383,2.164 -5.736,1.766c-1.603,-0.472 -2.609,-1.859 -2.686,-4.912c-0.023,-0.893 0,-3.395 0,-3.395l0.461,0c0,0 -0.399,7.347 2.038,7.001c0.971,-0.137 1.357,-0.768 1.373,-1.784c0.054,-3.447 -0.049,-7.288 1.302,-10.637c1.911,-4.738 6.888,-5.481 6.888,-5.481c0,0 -10.096,-0.498 -10.015,-8.567c0.027,-2.724 3.079,-8.37 11.38,-8.332l15.95,0l18.747,-0.042l0,0.552c0,0 -2.463,-0.037 -3.767,0c-3.033,0.085 -3.453,0.175 -3.445,2.908c0.009,3.041 0,15.164 0,15.164l6.175,0c0,0 4.926,0.304 4.977,-4.037c0.038,-3.183 -0.465,-9.995 1.399,-13.144c1.116,-1.886 4.382,-2.164 5.735,-1.766c1.603,0.472 2.609,1.859 2.687,4.912c0.022,0.893 0,3.395 0,3.395l-0.462,0c0,0 0.399,-7.347 -2.038,-7.001c-0.971,0.137 -1.356,0.768 -1.372,1.784c-0.054,3.447 0.048,7.288 -1.303,10.637c-1.911,4.738 -6.887,5.481 -6.887,5.481c0,0 10.095,0.498 10.015,8.567c-0.028,2.724 -3.08,8.37 -11.38,8.332l-15.95,0ZM55.425,46.597l0,14.443c0.031,0.789 0.17,1.537 1.884,1.561c1.16,0.016 4.296,0 4.296,0c1.013,-0.101 6.501,0.209 6.488,-8.053c-0.012,-7.973 -5.469,-7.712 -6.475,-7.951l-6.193,0ZM45.662,62.59c0,0 3.404,0.143 3.43,-2.874c0.045,-5.317 0.016,-23.353 0,-28.906c-0.009,-2.89 -3.43,-2.885 -3.43,-2.885c0,0 -3.691,-0.067 -3.737,2.885c-0.084,5.316 -0.029,23.353 0,28.906c0.015,2.929 3.609,2.937 3.737,2.874ZM35.591,43.929l0,-14.443c-0.031,-0.789 -0.17,-1.537 -1.884,-1.561c-1.16,-0.016 -4.296,0 -4.296,0c-1.013,0.101 -6.501,-0.209 -6.488,8.053c0.012,7.973 5.469,7.712 6.475,7.951l6.193,0Z" style="fill:#fff;"/></g></g></g></g></svg>