<?xml version="1.0" standalone="no"?>
<!DOCTYPE svg PUBLIC "-//W3C//DTD SVG 20010904//EN"
 "http://www.w3.org/TR/2001/REC-SVG-20010904/DTD/svg10.dtd">
<svg version="1.0" xmlns="http://www.w3.org/2000/svg"
 width="700.000000pt" height="700.000000pt" viewBox="0 0 700.000000 700.000000"
 preserveAspectRatio="xMidYMid meet">
<metadata>
Created by potrace 1.11, written by Peter Selinger 2001-2013
</metadata>
<g transform="translate(0.000000,700.000000) scale(0.100000,-0.100000)"
fill="#000000" stroke="none">
<path d="M3367 6934 c-1 -1 -51 -4 -112 -7 -185 -10 -326 -31 -597 -92 -270
-60 -678 -229 -931 -386 -43 -27 -81 -49 -83 -49 -3 0 -10 -5 -17 -10 -7 -6
-59 -43 -117 -84 -242 -169 -523 -432 -682 -637 -12 -16 -33 -42 -46 -57 -40
-48 -169 -235 -225 -327 -240 -396 -405 -864 -463 -1310 -3 -27 -8 -59 -10
-70 -24 -123 -23 -634 1 -790 3 -16 11 -75 20 -130 104 -697 444 -1371 946
-1874 123 -123 193 -186 341 -306 9 -7 68 -49 130 -93 273 -192 579 -346 899
-452 86 -29 372 -102 444 -114 65 -11 125 -20 225 -32 161 -20 500 -26 685
-11 475 38 980 195 1399 434 162 93 418 270 502 348 7 5 42 37 80 70 205 181
399 402 565 645 240 350 429 796 515 1215 2 11 6 31 9 45 9 42 26 153 31 195
2 22 7 54 9 72 27 182 26 579 -1 793 -6 47 -39 244 -49 295 -99 494 -352 1031
-672 1428 -90 111 -114 138 -243 270 -570 585 -1348 948 -2168 1013 -81 6
-380 13 -385 8z m362 -358 c51 -4 101 -9 110 -11 9 -1 43 -6 76 -10 137 -15
347 -64 515 -118 785 -255 1435 -815 1805 -1557 94 -187 200 -471 229 -612 3
-13 7 -32 10 -43 12 -50 37 -172 40 -195 2 -14 7 -43 10 -65 13 -90 16 -114
23 -205 13 -176 7 -484 -12 -615 -2 -16 -6 -48 -9 -70 -9 -66 -16 -109 -22
-135 -3 -14 -8 -36 -10 -50 -18 -101 -101 -383 -139 -475 -189 -458 -388 -762
-709 -1080 -393 -391 -817 -634 -1386 -795 -46 -13 -211 -49 -258 -56 -20 -3
-48 -7 -61 -9 -14 -3 -54 -7 -90 -11 -36 -3 -74 -8 -86 -11 -11 -2 -114 -6
-230 -7 -255 -4 -388 7 -600 45 -610 112 -1154 395 -1596 829 -248 245 -418
471 -576 770 -132 249 -258 608 -296 845 -13 80 -26 163 -31 195 -27 191 -27
546 -1 750 2 14 6 48 9 75 3 28 8 61 11 75 5 25 18 91 20 100 1 3 7 32 14 65
21 99 86 318 116 390 7 17 25 62 40 100 91 226 280 550 431 735 83 101 162
189 245 270 131 128 149 145 259 232 336 266 702 449 1110 557 132 35 174 45
250 57 14 2 34 6 46 9 11 2 43 7 70 10 27 3 60 8 74 10 14 3 61 7 105 10 43 4
80 7 81 8 5 5 329 -1 413 -7z"/>
<path d="M5458 4934 c-127 -30 -215 -102 -252 -205 -11 -30 -19 -56 -19 -59 0
-3 -3 -15 -8 -28 -5 -13 -11 -37 -14 -55 -3 -18 -10 -57 -15 -87 -15 -94 -19
-190 -20 -485 -1 -306 -6 -343 -53 -414 -31 -46 -87 -85 -163 -113 -55 -20
-78 -22 -354 -22 l-295 -1 0 650 c0 599 2 653 18 682 9 18 26 37 37 43 37 20
135 28 341 29 149 1 157 2 162 21 l5 21 -1441 -4 c-1570 -4 -1474 0 -1642 -58
-239 -83 -435 -279 -491 -492 -15 -58 -12 -205 5 -263 65 -211 170 -313 446
-435 47 -20 214 -57 270 -58 22 -1 26 -4 15 -10 -8 -6 -17 -8 -21 -5 -4 2 -10
0 -14 -6 -3 -5 -14 -10 -24 -10 -10 0 -57 -20 -105 -44 -247 -125 -364 -305
-415 -641 -18 -117 -21 -162 -26 -375 -6 -233 -14 -268 -71 -295 -123 -58
-191 86 -199 418 -2 109 -7 129 -26 110 -11 -11 -8 -343 4 -388 21 -81 30
-106 56 -147 57 -90 139 -124 275 -115 176 12 268 62 327 179 26 52 56 153 64
215 2 13 6 40 9 60 15 93 18 167 20 453 2 168 6 321 11 340 26 118 128 202
275 227 19 3 158 6 308 7 l273 1 -3 -660 c-3 -642 -4 -661 -23 -687 -38 -51
-64 -56 -343 -57 l-193 -1 3 -22 3 -23 1395 3 c856 2 1425 7 1471 13 308 40
551 203 663 444 61 133 64 276 6 426 -53 141 -188 268 -360 340 -79 33 -232
76 -304 84 -51 6 -75 15 -40 15 29 0 174 62 235 100 83 51 199 174 237 252 48
97 77 186 96 293 3 17 8 39 10 50 13 66 23 226 26 433 2 162 12 205 52 233 58
42 125 22 157 -47 40 -85 55 -183 56 -362 0 -106 1 -113 20 -110 18 3 19 11
18 164 -1 88 -7 189 -13 225 -22 123 -82 209 -169 247 -48 20 -182 23 -253 6z
m-2803 -81 c11 -6 29 -21 40 -33 19 -21 19 -40 20 -609 l0 -588 -240 -1 c-255
0 -346 9 -447 47 -148 56 -254 207 -285 404 -13 88 -8 315 10 397 51 228 185
360 397 389 87 12 482 7 505 -6z m968 -11 c23 -11 57 -32 76 -47 70 -59 65 26
67 -1265 1 -1110 0 -1167 -17 -1215 -31 -83 -103 -129 -218 -141 -132 -14
-255 39 -300 129 l-24 48 -1 977 c0 537 1 1069 4 1182 6 234 9 244 89 298 87
59 233 74 324 34z m1247 -1451 c196 -52 304 -170 354 -391 30 -133 21 -366
-21 -495 -39 -122 -113 -221 -201 -270 -91 -51 -166 -63 -414 -64 -179 -2
-234 1 -261 13 -70 29 -67 2 -68 612 0 302 0 565 0 584 l1 36 263 -2 c236 -1
270 -3 347 -23z"/>
</g>
</svg>
